# xmcd CD database file
#
# Track frame offsets:
#	150
#	27376
#	54984
#	101926
#	141929
#	162559
#	186989
#	218749
#	251674
#
# Disc length: 4091 seconds
#
# Revision: 0
# Processed by: cddbd v1.5.1PL2 Copyright (c) Steve Scherf et al.
# Submitted via: CDex 1.50
#
DISCID=870ff909
DTITLE=Buck Clayton - Live at The Embers
DYEAR=1953
DGENRE=Jazz
TTITLE0=But Not For Me
TTITLE1=After You've Gone
TTITLE2=Stompin' At The Savoy
TTITLE3=Medley: Easy Living - If You Were Mine - Body And Soul
TTITLE4=St. Louis Blues
TTITLE5=You're Just In Love
TTITLE6=Medley: Easy Living - Over The Rainbow
TTITLE7=Honeysuckle Rose
TTITLE8=Medley: I Cover The Waterfront - Yesterdays - California Here I Come
EXTD=YEAR: 1953
EXTT0=
EXTT1=
EXTT2=
EXTT3=
EXTT4=
EXTT5=
EXTT6=
EXTT7=
EXTT8=
PLAYORDER=
